HIERARCHY
ROOT Hips
{
    OFFSET 0.000000 0.000000 0.000000
    CHANNELS 6 Xposition Yposition Zposition Zrotation Xrotation Yrotation
    JOINT Spine
    {
        OFFSET -0.000000 14.517291 0.000000
        CHANNELS 3 Zrotation Xrotation Yrotation
        JOINT Spine1
        {
            OFFSET -0.000000 37.558300 0.000000
            CHANNELS 3 Zrotation Xrotation Yrotation
            JOINT Neck
            {
                OFFSET -0.000000 37.404057 3.400369
                CHANNELS 3 Zrotation Xrotation Yrotation
                JOINT Head
                {
                    OFFSET -0.000000 24.785618 -3.540803
                    CHANNELS 3 Zrotation Xrotation Yrotation
                    End Site
                    {
                        OFFSET -0.000000 35.408028 0.000000
                    }
                }
            }
            JOINT LeftShoulder
            {
                OFFSET 6.992933 33.973492 -0.192664
                CHANNELS 3 Zrotation Xrotation Yrotation
                JOINT LeftArm
                {
                    OFFSET 21.527611 0.000000 0.000000
                    CHANNELS 3 Zrotation Xrotation Yrotation
                    JOINT LeftForeArm
                    {
                        OFFSET 56.353916 0.000000 0.000000
                        CHANNELS 3 Zrotation Xrotation Yrotation
                        JOINT LeftHand
                        {
                            OFFSET 47.774071 0.000000 0.000000
                            CHANNELS 3 Zrotation Xrotation Yrotation
                            End Site
                            {
                                OFFSET 26.556021 0.000000 0.000000
                            }
                        }
                    }
                }
            }
            JOINT RightShoulder
            {
                OFFSET -7.065357 33.973492 -0.192664
                CHANNELS 3 Zrotation Xrotation Yrotation
                JOINT RightArm
                {
                    OFFSET -21.527611 0.000000 0.000000
                    CHANNELS 3 Zrotation Xrotation Yrotation
                    JOINT RightForeArm
                    {
                        OFFSET -56.353916 0.000000 0.000000
                        CHANNELS 3 Zrotation Xrotation Yrotation
                        JOINT RightHand
                        {
                            OFFSET -47.774071 0.000000 0.000000
                            CHANNELS 3 Zrotation Xrotation Yrotation
                            End Site
                            {
                                OFFSET -26.556021 0.000000 0.000000
                            }
                        }
                    }
                }
            }
        }
    }
    JOINT LeftUpLeg
    {
        OFFSET 17.704014 0.000000 0.000000
        CHANNELS 3 Zrotation Xrotation Yrotation
        JOINT LeftLeg
        {
            OFFSET -0.000000 -81.181816 0.000000
            CHANNELS 3 Zrotation Xrotation Yrotation
            JOINT LeftFoot
            {
                OFFSET -0.000000 -62.821102 0.000000
                CHANNELS 3 Zrotation Xrotation Yrotation
                JOINT LeftToeBase
                {
                    OFFSET -0.000000 -11.507608 26.556021
                    CHANNELS 3 Zrotation Xrotation Yrotation
                    End Site
                    {
                        OFFSET -0.000000 0.000000 7.081605
                    }
                }
            }
        }
    }
    JOINT RightUpLeg
    {
        OFFSET -17.704014 0.000000 0.000000
        CHANNELS 3 Zrotation Xrotation Yrotation
        JOINT RightLeg
        {
            OFFSET -0.000000 -81.181816 0.000000
            CHANNELS 3 Zrotation Xrotation Yrotation
            JOINT RightFoot
            {
                OFFSET -0.000000 -62.821102 0.000000
                CHANNELS 3 Zrotation Xrotation Yrotation
                JOINT RightToeBase
                {
                    OFFSET -0.000000 -11.507608 26.556021
                    CHANNELS 3 Zrotation Xrotation Yrotation
                    End Site
                    {
                        OFFSET -0.000000 0.000000 7.081605
                    }
                }
            }
        }
    }
}
MOTION
Frames:    4
Frame Time:    0.008333
10.210969    159.674988    -4.079992    3.950336    5.082259    -42.337746    2.675676    0.549702    3.735166    -0.089120    -1.851113    1.247987    17.316835    4.577673    17.529230    -13.542205    -3.672390    14.060862    -0.677164    8.987026    -10.767174    -40.181389    8.195895    -35.690674    42.125671    -46.789684    -43.153618    -22.522232    -27.009315    -35.947578    -4.188476    6.535392    -0.628176    34.483772    9.156153    77.691666    3.936086    -11.830340    94.117844    11.377445    -13.823053    21.710238    19.895853    -17.226791    2.816062    -6.931305    4.620530    -1.484717    -15.265409    5.389422    42.494179    0.000000    0.000000    0.000000    -14.663639    0.057728    -11.045835    2.731316    5.660858    -7.439717    11.205451    -3.504697    -5.645299    0.000000    0.000000    0.000000    
10.191422    159.666977    -4.071724    3.960268    5.055037    -42.360493    2.701996    0.515941    3.725752    -0.121190    -1.854571    1.244091    17.263786    4.556346    17.526026    -13.445262    -3.597524    14.085251    -0.697798    8.996749    -10.739359    -40.232689    8.152196    -35.666142    42.017025    -46.759926    -43.274689    -22.490515    -26.980413    -35.925606    -4.206534    6.545276    -0.615493    34.454891    9.234130    77.671852    3.924132    -11.862670    94.113792    11.394285    -13.838932    21.712139    19.791443    -17.028158    2.511783    -6.782520    4.247654    -1.293765    -15.362308    5.435474    42.576401    0.000000    0.000000    0.000000    -14.657446    0.230383    -10.849635    2.731552    5.326844    -7.534643    11.215647    -3.445704    -5.669364    0.000000    0.000000    0.000000    
10.172055    159.658707    -4.071808    3.970998    5.041220    -42.376942    2.728525    0.482180    3.721590    -0.145118    -1.869439    1.242122    17.236311    4.569757    17.516506    -13.406981    -3.573260    14.089725    -0.706925    9.014066    -10.731061    -40.283436    8.136308    -35.643108    41.979870    -46.751892    -43.345921    -22.499695    -26.957050    -35.908710    -4.231284    6.551808    -0.618498    34.457447    9.298263    77.649933    3.933225    -11.852522    94.120880    11.385461    -13.844385    21.674330    19.706045    -16.863415    2.192215    -6.650203    3.904254    -1.014717    -15.422392    5.531787    42.580097    0.000000    0.000000    0.000000    -14.645950    0.385145    -10.563567    2.748166    5.009541    -7.657118    11.202905    -3.408043    -5.767454    0.000000    0.000000    0.000000    
10.154869    159.650818    -4.072512    3.983109    5.023184    -42.384739    2.748766    0.457107    3.713573    -0.169728    -1.880987    1.238876    17.209013    4.567496    17.516745    -13.367494    -3.554039    14.101582    -0.719042    9.035784    -10.705729    -40.329876    8.119394    -35.643837    41.946129    -46.732803    -43.416996    -22.529633    -26.909288    -35.904438    -4.236124    6.558630    -0.633826    34.431717    9.372669    77.634300    3.931433    -11.863647    94.143745    11.367097    -13.861180    21.649061    19.637333    -16.726755    1.847515    -6.559597    3.618568    -0.766939    -15.495307    5.578600    42.643402    0.000000    0.000000    0.000000    -14.643921    0.502251    -10.239569    2.760312    4.781011    -7.829499    11.213033    -3.406294    -5.870438    0.000000    0.000000    0.000000    
